<svg xmlns="http://www.w3.org/2000/svg" xmlns:xlink="http://www.w3.org/1999/xlink" fill="none" version="1.1" width="28.800003051757812" height="22.976001739501953" viewBox="0 0 28.800003051757812 22.976001739501953"><g><path d="M8.672,8.576C8.672,8.576,5.568,22.944,5.568,22.944C5.568,22.944,0,22.944,0,22.944C0,22.944,4.576,2.592,4.576,2.592C4.576,2.592,3.584,1.408,3.584,1.408C3.584,1.408,14.176,1.408,14.176,1.408C14.176,1.408,14.272,0.896,14.272,0.896C14.272,0.896,13.504,0,13.504,0C13.504,0,20.704,0,20.704,0C20.704,0,20.48,1.408,20.48,1.408C20.48,1.408,28.8,1.408,28.8,1.408C28.8,1.408,27.808,8.576,27.808,8.576C27.808,8.576,8.672,8.576,8.672,8.576ZM20.256,21.408C20.256,21.408,20.8,17.344,20.8,17.344C20.8,17.344,14.72,17.344,14.72,17.344C14.72,17.344,12.352,22.752,12.352,22.752C12.352,22.752,6.56,22.752,6.56,22.752C6.56,22.752,10.88,13.408,10.88,13.408C10.88,13.408,8.512,13.408,8.512,13.408C8.512,13.408,8.896,10.624,8.896,10.624C8.896,10.624,15.36,10.624,15.36,10.624C15.36,10.624,15.584,9.024,15.584,9.024C15.584,9.024,21.248,9.024,21.248,9.024C21.248,9.024,21.024,10.624,21.024,10.624C21.024,10.624,27.616,10.624,27.616,10.624C27.616,10.624,27.232,13.408,27.232,13.408C27.232,13.408,16.448,13.408,16.448,13.408C16.448,13.408,16,14.4,16,14.4C16,14.4,26.528,14.4,26.528,14.4C26.528,14.4,25.568,21.408,25.568,21.408C25.504,21.8347,25.216,22.208,24.704,22.528C24.192,22.8267,23.6053,22.976,22.944,22.976C22.944,22.976,18.496,22.976,18.496,22.976C18.496,22.976,20.256,21.408,20.256,21.408ZM9.632,4.288C9.632,4.288,9.344,5.632,9.344,5.632C9.344,5.632,22.624,5.632,22.624,5.632C22.624,5.632,22.816,4.288,22.816,4.288C22.816,4.288,9.632,4.288,9.632,4.288Z" fill="#000000" fill-opacity="1"/></g></svg>