<svg xmlns="http://www.w3.org/2000/svg" xmlns:xlink="http://www.w3.org/1999/xlink" fill="none" version="1.1" width="29.152000427246094" height="23.007999420166016" viewBox="0 0 29.152000427246094 23.007999420166016"><g><path d="M16.032,5.056C16.032,5.056,15.52,1.152,15.52,1.152C15.52,1.152,14.4,0,14.4,0C14.4,0,21.248,0,21.248,0C21.248,0,21.888,5.056,21.888,5.056C21.888,5.056,29.152,5.056,29.152,5.056C29.152,5.056,28.704,8.32,28.704,8.32C28.704,8.32,22.304,8.32,22.304,8.32C22.304,8.32,22.816,12.192,22.816,12.192C22.816,12.192,28.608,9.312,28.608,9.312C28.608,9.312,28,13.568,28,13.568C28,13.568,23.296,15.904,23.296,15.904C23.296,15.904,23.84,19.968,23.84,19.968C23.84,19.968,26.048,19.968,26.048,19.968C26.048,19.968,27.232,18.816,27.232,18.816C27.232,18.816,26.656,22.976,26.656,22.976C26.656,22.976,18.464,22.976,18.464,22.976C18.464,22.976,17.856,18.624,17.856,18.624C17.856,18.624,11.68,21.696,11.68,21.696C11.68,21.696,12.288,17.408,12.288,17.408C12.288,17.408,17.376,14.88,17.376,14.88C17.376,14.88,16.48,8.32,16.48,8.32C16.48,8.32,13.408,8.32,13.408,8.32C13.408,8.32,13.856,5.056,13.856,5.056C13.856,5.056,16.032,5.056,16.032,5.056ZM2.88,20.032C2.88,20.032,3.52,15.52,3.52,15.52C3.52,15.52,0.896,16.064,0.896,16.064C0.896,16.064,1.376,12.704,1.376,12.704C1.376,12.704,3.968,12.128,3.968,12.128C3.968,12.128,4.736,6.656,4.736,6.656C4.736,6.656,2.208,6.656,2.208,6.656C2.208,6.656,2.656,3.616,2.656,3.616C2.656,3.616,5.152,3.616,5.152,3.616C5.152,3.616,5.536,1.024,5.536,1.024C5.536,1.024,4.768,0,4.768,0C4.768,0,11.328,0,11.328,0C11.328,0,10.816,3.616,10.816,3.616C10.816,3.616,13.376,3.616,13.376,3.616C13.376,3.616,12.928,6.656,12.928,6.656C12.928,6.656,10.4,6.656,10.4,6.656C10.4,6.656,9.792,10.88,9.792,10.88C9.792,10.88,12.416,10.304,12.416,10.304C12.416,10.304,11.968,13.664,11.968,13.664C11.968,13.664,9.312,14.24,9.312,14.24C9.312,14.24,8.384,20.896,8.384,20.896C8.27733,21.5147,7.97867,22.0267,7.488,22.432C7.01867,22.816,6.48533,23.008,5.888,23.008C5.888,23.008,0,23.008,0,23.008C0,23.008,2.88,20.032,2.88,20.032ZM23.008,4.288C23.008,4.288,22.464,0.639999,22.464,0.639999C22.464,0.639999,27.648,0.639999,27.648,0.639999C27.648,0.639999,28.192,4.288,28.192,4.288C28.192,4.288,23.008,4.288,23.008,4.288Z" fill="#000000" fill-opacity="1"/></g></svg>